<?xml version="1.0" encoding="UTF-8" standalone="no"?>
<svg
   xmlns:dc="http://purl.org/dc/elements/1.1/"
   xmlns:cc="http://creativecommons.org/ns#"
   xmlns:rdf="http://www.w3.org/1999/02/22-rdf-syntax-ns#"
   xmlns:svg="http://www.w3.org/2000/svg"
   xmlns="http://www.w3.org/2000/svg"
   viewBox="0 0 105.60413 96.332001"
   height="96.332001"
   width="105.60413"
   xml:space="preserve"
   id="svg2"
   version="1.1"><metadata
     id="metadata8"><rdf:RDF><cc:Work
         rdf:about=""><dc:format>image/svg+xml</dc:format><dc:type
           rdf:resource="http://purl.org/dc/dcmitype/StillImage" /></cc:Work></rdf:RDF></metadata><defs
     id="defs6"><clipPath
       id="clipPath18"
       clipPathUnits="userSpaceOnUse"><path
         id="path16"
         d="M 0,72.249 H 79.203 V 0 H 0 Z" /></clipPath></defs><g
     transform="matrix(1.3333333,0,0,-1.3333333,0,96.332)"
     id="g10"><g
       id="g12"><g
         clip-path="url(#clipPath18)"
         id="g14"><g
           transform="translate(63.5596,15.5732)"
           id="g20"><path
             id="path22"
             style="fill:#ad1b1b;fill-opacity:1;fill-rule:nonzero;stroke:none"
             d="m 0,0 c -3.559,-3.751 -9.417,-5.573 -17.912,-5.573 h -12.092 c -7.935,0 -13.857,2.016 -17.599,5.996 -3.953,4.201 -5.957,10.923 -5.957,19.977 0,9.638 1.914,16.568 5.687,20.597 3.58,3.821 9.425,5.679 17.869,5.679 h 12.092 C -7.8,46.676 5.644,43.952 5.644,20.4 5.644,10.811 3.745,3.947 0,0 m -17.912,56.676 h -12.092 c -22.37,0 -33.556,-11.488 -33.556,-36.276 0,-23.58 11.942,-35.973 33.556,-35.973 h 12.092 c 22.371,0 33.556,11.184 33.556,35.973 0,23.579 -11.942,36.276 -33.556,36.276" /></g><g
           transform="translate(36.0332,33.9619)"
           id="g24"><path
             id="path26"
             style="fill:#ad1b1b;fill-opacity:1;fill-rule:nonzero;stroke:none"
             d="m 0,0 h 7.137 c 0.377,1.479 0.657,2.199 0.866,2.735 0.439,1.127 0.565,1.602 0.565,4.972 v 13.627 h -10 V 7.707 c 0,-3.371 0.127,-3.846 0.566,-4.973 C -0.657,2.198 -0.377,1.479 0,0" /></g><g
           transform="translate(39.6016,29.1201)"
           id="g28"><path
             id="path30"
             style="fill:#ad1b1b;fill-opacity:1;fill-rule:nonzero;stroke:none"
             d="m 0,0 c -3.354,0 -6.083,-2.729 -6.083,-6.084 0,-3.354 2.729,-6.083 6.083,-6.083 3.354,0 6.083,2.729 6.083,6.083 C 6.083,-2.729 3.354,0 0,0" /></g></g></g></g></svg>